# xmcd CD database file
#
# Track frame offsets:
#	150
#	9480
#	23752
#	34825
#	44525
#	54380
#	65497
#	76115
#	86447
#	97857
#
# Disc length: 1435 seconds
#
# Revision: 1
# Processed by: cddbd v1.5.2PL0 Copyright (c) Steve Scherf et al.
# Submitted via: jetAudio 7
#
DISCID=6b05990a
DTITLE=Floyd Cramer and Chet Atkins - Double Barrel Country
DYEAR=1997
DGENRE=Country
TTITLE0=Yakety Axe
TTITLE1=Fiddlin' Around
TTITLE2=I Can't Stop Loving You
TTITLE3=One Mint Julep
TTITLE4=Will The Circle Be Unbroken
TTITLE5=Last Date
TTITLE6=San Antonio Rose
TTITLE7=Tennessee Waltz
TTITLE8=King Of The Road
TTITLE9=Let It Be Me
EXTD=
EXTT0=
EXTT1=
EXTT2=
EXTT3=
EXTT4=
EXTT5=
EXTT6=
EXTT7=
EXTT8=
EXTT9=
PLAYORDER=
